<svg xmlns="http://www.w3.org/2000/svg" xmlns:xlink="http://www.w3.org/1999/xlink" version="1.1" x="0px" y="0px" viewBox="0 0 24 30" style="enable-background:new 0 0 24 24;" xml:space="preserve"><path d="M20,5H4C2.622,5,1.5,6.121,1.5,7.5v9C1.5,17.879,2.622,19,4,19h16c1.378,0,2.5-1.121,2.5-2.5v-9C22.5,6.121,21.378,5,20,5z   M4,6h16c0.827,0,1.5,0.673,1.5,1.5V9h-19V7.5C2.5,6.673,3.173,6,4,6z M20,18H4c-0.827,0-1.5-0.673-1.5-1.5V10h19v6.5  C21.5,17.327,20.827,18,20,18z"/><path d="M18.75,14.5c-0.303,0-0.566,0.143-0.75,0.357c-0.184-0.214-0.447-0.357-0.75-0.357c-0.551,0-1,0.448-1,1s0.449,1,1,1  c0.303,0,0.566-0.143,0.75-0.357c0.184,0.214,0.447,0.357,0.75,0.357c0.551,0,1-0.448,1-1S19.301,14.5,18.75,14.5z M17.25,15.5  C17.25,15.5,17.25,15.499,17.25,15.5h0.5H17.25z M18.75,15.5C18.75,15.5,18.75,15.499,18.75,15.5h0.5H18.75z"/><text x="0" y="39" fill="#000000" font-size="5px" font-weight="bold" font-family="'Helvetica Neue', Helvetica, Arial-Unicode, Arial, Sans-serif">Created by Astatine Lab</text><text x="0" y="44" fill="#000000" font-size="5px" font-weight="bold" font-family="'Helvetica Neue', Helvetica, Arial-Unicode, Arial, Sans-serif">from the Noun Project</text></svg>